<svg width="167" height="51" viewBox="0 0 167 51" fill="none" xmlns="http://www.w3.org/2000/svg">
<g filter="url(#filter0_dd_1006_684)">
<path d="M31.0653 17.0455V34.5H28.2528L20.0284 22.6108H19.8835V34.5H16.7216V17.0455H19.5511L27.767 28.9432H27.9205V17.0455H31.0653ZM34.5107 34.5V17.0455H45.8629V19.696H37.6726V24.4347H45.2749V27.0852H37.6726V31.8494H45.9311V34.5H34.5107ZM64.6854 25.7727C64.6854 27.6534 64.3331 29.2642 63.6286 30.6051C62.9297 31.9403 61.9751 32.9631 60.7649 33.6733C59.5604 34.3835 58.1939 34.7386 56.6655 34.7386C55.1371 34.7386 53.7678 34.3835 52.5575 33.6733C51.353 32.9574 50.3984 31.9318 49.6939 30.5966C48.995 29.2557 48.6456 27.6477 48.6456 25.7727C48.6456 23.892 48.995 22.2841 49.6939 20.9489C50.3984 19.608 51.353 18.5824 52.5575 17.8722C53.7678 17.1619 55.1371 16.8068 56.6655 16.8068C58.1939 16.8068 59.5604 17.1619 60.7649 17.8722C61.9751 18.5824 62.9297 19.608 63.6286 20.9489C64.3331 22.2841 64.6854 23.892 64.6854 25.7727ZM61.5064 25.7727C61.5064 24.4489 61.299 23.3324 60.8842 22.4233C60.4751 21.5085 59.907 20.8182 59.1797 20.3523C58.4524 19.8807 57.6143 19.6449 56.6655 19.6449C55.7166 19.6449 54.8786 19.8807 54.1513 20.3523C53.424 20.8182 52.853 21.5085 52.4382 22.4233C52.0291 23.3324 51.8246 24.4489 51.8246 25.7727C51.8246 27.0966 52.0291 28.2159 52.4382 29.1307C52.853 30.0398 53.424 30.7301 54.1513 31.2017C54.8786 31.6676 55.7166 31.9006 56.6655 31.9006C57.6143 31.9006 58.4524 31.6676 59.1797 31.2017C59.907 30.7301 60.4751 30.0398 60.8842 29.1307C61.299 28.2159 61.5064 27.0966 61.5064 25.7727ZM82.0185 17.0455V34.5H79.206L70.9815 22.6108H70.8366V34.5H67.6747V17.0455H70.5043L78.7202 28.9432H78.8736V17.0455H82.0185ZM85.4638 34.5V17.0455H92.1456C93.407 17.0455 94.4553 17.2443 95.2905 17.642C96.1314 18.0341 96.7592 18.571 97.174 19.2528C97.5945 19.9347 97.8047 20.7074 97.8047 21.571C97.8047 22.2812 97.6683 22.8892 97.3956 23.3949C97.1229 23.8949 96.7564 24.3011 96.2962 24.6136C95.8359 24.9261 95.3217 25.1506 94.7536 25.2869V25.4574C95.3729 25.4915 95.9666 25.6818 96.5348 26.0284C97.1087 26.3693 97.5774 26.8523 97.9411 27.4773C98.3047 28.1023 98.4865 28.858 98.4865 29.7443C98.4865 30.6477 98.2678 31.4602 97.8303 32.1818C97.3928 32.8977 96.7337 33.4631 95.853 33.8778C94.9723 34.2926 93.8643 34.5 92.5291 34.5H85.4638ZM88.6257 31.858H92.0263C93.174 31.858 94.0007 31.6392 94.5064 31.2017C95.0178 30.7585 95.2734 30.1903 95.2734 29.4972C95.2734 28.9801 95.1456 28.5142 94.8899 28.0994C94.6342 27.679 94.2706 27.3494 93.799 27.1108C93.3274 26.8665 92.7649 26.7443 92.1115 26.7443H88.6257V31.858ZM88.6257 24.4688H91.7536C92.299 24.4688 92.7905 24.3693 93.228 24.1705C93.6655 23.9659 94.0092 23.679 94.2592 23.3097C94.5149 22.9347 94.6428 22.4915 94.6428 21.9801C94.6428 21.304 94.4041 20.7472 93.9268 20.3097C93.4553 19.8722 92.7536 19.6534 91.8217 19.6534H88.6257V24.4688ZM103.479 34.5H100.104L106.249 17.0455H110.152L116.305 34.5H112.93L108.268 20.625H108.132L103.479 34.5ZM103.589 27.6562H112.794V30.196H103.589V27.6562ZM132.948 17.0455V34.5H130.136L121.911 22.6108H121.766V34.5H118.604V17.0455H121.434L129.65 28.9432H129.803V17.0455H132.948ZM136.393 34.5V17.0455H139.555V25.0653H139.768L146.578 17.0455H150.439L143.689 24.8778L150.499 34.5H146.697L141.49 27.017L139.555 29.3011V34.5H136.393Z" fill="white"/>
</g>
<defs>
<filter id="filter0_dd_1006_684" x="0.721619" y="0.806824" width="165.777" height="49.9318" filterUnits="userSpaceOnUse" color-interpolation-filters="sRGB">
<feFlood flood-opacity="0" result="BackgroundImageFix"/>
<feColorMatrix in="SourceAlpha" type="matrix" values="0 0 0 0 0 0 0 0 0 0 0 0 0 0 0 0 0 0 127 0" result="hardAlpha"/>
<feOffset/>
<feGaussianBlur stdDeviation="8"/>
<feComposite in2="hardAlpha" operator="out"/>
<feColorMatrix type="matrix" values="0 0 0 0 0.541667 0 0 0 0 0 0 0 0 0 0.307433 0 0 0 1 0"/>
<feBlend mode="normal" in2="BackgroundImageFix" result="effect1_dropShadow_1006_684"/>
<feColorMatrix in="SourceAlpha" type="matrix" values="0 0 0 0 0 0 0 0 0 0 0 0 0 0 0 0 0 0 127 0" result="hardAlpha"/>
<feOffset/>
<feGaussianBlur stdDeviation="2.5"/>
<feComposite in2="hardAlpha" operator="out"/>
<feColorMatrix type="matrix" values="0 0 0 0 1 0 0 0 0 0.258333 0 0 0 0 0.685598 0 0 0 1 0"/>
<feBlend mode="normal" in2="effect1_dropShadow_1006_684" result="effect2_dropShadow_1006_684"/>
<feBlend mode="normal" in="SourceGraphic" in2="effect2_dropShadow_1006_684" result="shape"/>
</filter>
</defs>
</svg>
